<svg xmlns="http://www.w3.org/2000/svg" width="150" height="50" viewBox="0,0,150,50"><path fill="#111" d="M46.38 29.15L46.50 29.27L46.45 29.22Q44.55 29.18 43.33 30.51L43.25 30.43L43.29 30.48Q42.07 31.80 41.91 33.70L41.91 33.70L41.90 33.69Q41.87 35.99 43.09 36.99L43.00 36.90L42.98 36.89Q44.12 37.81 46.25 37.73L46.32 37.80L46.29 37.77Q48.70 37.71 49.65 36.75L49.55 36.66L49.59 36.70Q50.62 35.26 50.51 33.43L50.45 33.37L50.57 33.49Q50.47 31.64 49.39 30.44L49.37 30.43L49.38 30.44Q48.25 29.19 46.43 29.19ZM46.39 19.75L46.47 19.83L46.45 19.81Q44.94 19.60 43.61 20.10L43.58 20.06L43.65 20.14Q42.30 20.88 42.53 22.75L42.49 22.70L42.63 22.84Q43.00 26.45 46.35 26.45L46.40 26.50L46.51 26.61Q47.91 26.64 48.90 25.50L48.89 25.49L48.98 25.58Q49.95 24.42 49.99 22.86L50.07 22.94L49.94 22.81Q50.07 21.12 49.35 20.51L49.28 20.44L49.38 20.53Q47.69 19.68 46.39 19.76ZM46.21 40.40L46.05 40.24L42.98 40.21L43.05 40.29Q41.64 40.39 40.31 39.52L40.29 39.50L40.18 39.39Q38.80 38.24 38.95 35.38L39.08 35.51L38.91 35.34Q39.53 28.65 43.14 27.66L43.16 27.68L42.98 27.50Q40.85 26.74 39.52 21.37L39.37 21.23L39.38 21.23Q39.20 19.99 39.28 19.19L39.24 19.15L39.20 19.12Q39.58 17.06 43.28 17.02L43.28 17.02L43.20 16.95Q47.40 16.85 48.85 17.04L48.78 16.97L48.95 17.14Q52.75 17.62 53.20 19.64L53.22 19.65L53.23 19.66Q53.34 20.27 53.34 20.65L53.21 20.52L53.18 20.49Q53.30 21.29 53.11 21.90L53.14 21.93L53.12 21.92Q52.49 26.12 49.56 27.64L49.52 27.60L49.54 27.62Q53.05 28.43 53.54 33.72L53.63 33.81L53.63 33.80Q53.48 33.81 53.52 35.11L53.60 35.18L53.58 35.16Q53.73 37.98 52.13 39.05L51.98 38.90L52.01 38.92Q50.66 39.83 46.10 40.28ZM48.38 42.60L48.40 42.63L51.68 42.63L51.80 42.75Q53.39 42.71 54.92 41.99L54.92 41.99L54.93 42.00Q56.12 41.32 56.19 39.46L56.12 39.38L56.17 39.43Q56.24 38.36 55.86 36.42L55.93 36.49L55.78 36.33Q54.98 31.80 52.88 29.94L52.87 29.93L52.60 29.46L52.56 29.35L52.41 29.08L52.28 28.96Q53.95 27.61 54.86 23.47L54.81 23.41L54.89 23.49Q54.96 23.18 55.03 22.34L54.95 22.26L54.89 22.20Q54.95 21.50 54.87 20.89L55.01 21.02L54.91 20.92Q54.88 19.60 53.70 19.10L53.57 18.98L53.73 19.10L53.41 18.86L53.38 18.83Q53.16 18.15 51.98 17.35L51.98 17.35L52.13 17.46L52.05 17.38Q50.13 16.75 46.06 16.56L46.05 16.56L46.01 16.52Q44.52 16.48 43.15 16.59L43.14 16.58L43.15 16.59Q42.26 16.54 40.97 16.69L41.01 16.73L40.93 16.66Q38.97 17.02 38.74 18.65L38.77 18.68L38.89 18.80Q38.78 19.22 38.82 20.02L38.86 20.07L38.71 19.92Q38.84 20.47 39.41 22.83L39.44 22.86L39.46 22.88Q40.38 26.23 42.13 27.56L42.00 27.43L42.16 27.59L42.18 27.61Q39.43 28.94 38.90 34.11L38.82 34.03L38.88 34.10Q38.61 36.22 38.61 37.13L38.57 37.10L38.55 37.08Q38.77 39.01 39.95 39.92L39.80 39.78L39.92 39.90Q40.07 40.01 40.34 40.20L40.35 40.21L40.31 40.17Q41.31 42.42 48.43 42.65ZM48.02 31.51L48.16 31.65L48.03 31.52Q48.91 31.41 49.79 31.87L49.85 31.93L49.82 31.90Q50.27 32.96 50.23 33.50L50.28 33.55L50.24 33.50Q50.23 33.76 50.23 34.06L50.15 33.99L50.30 34.13Q50.26 36.46 47.98 37.29L48.04 37.36L47.88 37.19Q47.22 37.64 46.42 37.53L46.42 37.52L46.39 37.49Q45.21 37.54 44.07 37.08L44.10 37.11L44.07 37.07Q43.75 36.37 43.82 35.38L43.86 35.42L43.95 35.51Q44.02 33.83 45.22 32.61L45.33 32.72L45.24 32.63Q46.55 31.52 48.15 31.64ZM48.35 22.13L48.32 22.11L48.33 22.11Q49.02 21.89 49.56 22.04L49.68 22.17L49.56 22.85L49.52 22.81Q49.52 24.22 48.61 25.22L48.64 25.26L48.78 25.40Q47.89 26.43 46.52 26.24L46.44 26.16L46.48 26.20Q45.38 26.09 44.96 25.86L45.06 25.96L44.98 25.88Q45.05 25.72 44.93 25.04L44.82 24.92L44.94 25.04Q44.57 23.53 45.78 22.69L45.82 22.73L45.87 22.77Q46.83 21.98 48.24 22.02Z"/><path fill="#333" d="M97.77 27.78L97.79 27.80L97.74 27.75Q94.13 27.56 93.02 30.91L92.99 30.88L93.15 31.04Q92.68 32.02 92.57 33.08L92.71 33.23L92.56 33.08Q92.44 35.20 93.43 36.53L93.48 36.58L93.30 36.41Q94.70 37.65 97.18 37.69L97.15 37.66L97.17 37.69Q98.98 37.70 100.39 36.56L100.42 36.60L100.42 36.59Q101.81 35.43 101.81 33.64L101.77 33.60L101.94 33.77Q101.94 33.43 101.86 33.05L101.86 33.05L101.70 32.89Q101.57 27.85 97.76 27.77ZM97.62 40.19L97.59 40.16L97.59 40.16Q93.87 40.47 92.08 38.45L92.09 38.47L92.02 38.39Q91.82 39.46 91.37 40.83L91.34 40.80L91.41 40.87Q89.38 41.54 88.12 42.11L88.08 42.07L88.12 42.11Q90.38 36.23 90.38 29.72L90.27 29.61L90.22 29.55Q90.32 21.35 86.89 13.51L86.91 13.53L86.82 13.44Q89.18 14.81 90.51 15.27L90.48 15.23L90.52 15.28Q92.59 21.88 92.75 27.70L92.74 27.70L92.84 27.80Q94.31 25.15 98.04 25.19L97.92 25.07L97.91 25.06Q101.15 25.11 102.64 26.97L102.66 26.99L102.73 27.06Q104.42 29.22 104.58 32.79L104.66 32.88L104.66 32.88Q104.67 33.99 104.60 35.59L104.68 35.68L104.72 35.71Q104.53 37.01 103.65 38.15L103.78 38.28L103.69 38.19Q101.96 39.92 97.62 40.19ZM103.18 42.78L103.08 42.68L103.10 42.70Q104.67 42.79 106.16 42.10L106.09 42.03L106.02 41.97Q107.13 40.67 107.16 38.73L107.20 38.77L107.22 38.79Q107.30 38.38 107.15 37.20L107.05 37.09L107.13 37.17Q107.11 36.55 107.00 35.64L106.97 35.61L106.86 35.50Q106.11 30.79 104.55 28.73L104.50 28.68L104.56 28.74Q104.59 28.74 103.79 27.86L103.74 27.80L103.68 27.75Q103.56 27.59 103.03 26.79L102.88 26.65L102.94 26.70Q101.36 24.78 98.01 24.82L97.95 24.75L98.09 24.90Q95.90 24.80 94.64 25.41L94.79 25.55L94.79 25.55Q94.27 20.85 93.66 17.66L93.68 17.67L93.76 17.75Q93.08 17.64 91.59 17.26L91.47 17.14L91.62 17.29Q91.36 16.42 90.90 14.97L90.87 14.94L90.85 14.92Q88.48 14.18 86.23 12.62L86.29 12.68L86.22 12.61Q89.96 20.77 89.96 29.56L89.95 29.55L90.04 29.64Q89.91 36.47 87.43 42.68L87.62 42.86L87.47 42.72Q88.29 42.51 89.62 41.94L89.51 41.82L89.60 41.91Q89.27 42.57 88.66 44.10L88.68 44.11L88.75 44.19Q90.75 43.29 93.53 42.76L93.56 42.80L93.95 40.97L93.89 40.91Q96.10 42.51 103.03 42.63ZM99.40 30.09L99.36 30.06L99.40 30.09Q100.38 30.04 100.91 30.42L100.83 30.34L100.91 30.42Q101.17 30.87 101.40 32.89L101.35 32.84L101.39 32.88Q101.58 34.74 100.32 36.06L100.49 36.23L100.34 36.08Q99.07 37.38 97.13 37.27L97.12 37.25L97.25 37.38Q96.25 37.45 94.76 36.95L94.73 36.92L94.89 37.07Q94.62 36.54 94.62 36.01L94.60 35.99L94.67 36.06Q94.56 32.87 96.12 31.27L96.15 31.30L96.04 31.23L96.09 31.27Q97.52 29.89 99.28 29.97Z"/><path fill="#222" d="M124.77 30.95L124.77 30.95L124.64 30.82Q124.86 29.51 124.04 28.60L124.00 28.56L124.05 28.61Q123.07 27.54 121.63 27.58L121.71 27.66L121.74 27.69Q119.46 27.81 118.62 29.94L118.52 29.83L118.48 29.79Q118.28 30.66 118.24 31.34L118.18 31.28L118.17 31.27Q117.99 36.16 117.07 40.50L117.09 40.51L117.05 40.47Q115.41 41.05 113.55 42.04L113.55 42.04L113.52 42.01Q115.88 35.12 115.62 27.81L115.63 27.83L115.54 27.73Q115.19 20.30 112.64 13.49L112.70 13.55L112.68 13.53Q114.55 14.94 116.57 15.63L116.47 15.53L116.57 15.63Q118.08 21.48 118.27 27.34L118.22 27.29L118.21 27.28Q119.67 25.28 122.37 25.35L122.24 25.22L122.24 25.22Q127.45 25.44 127.56 30.81L127.51 30.76L127.48 30.73Q127.64 36.45 129.01 41.09L128.92 41.00L128.94 41.02Q127.05 40.16 125.30 39.97L125.30 39.97L125.46 40.13Q124.94 36.86 124.82 31.00ZM125.11 40.42L124.97 40.29L124.94 40.26Q126.13 40.53 127.23 40.80L127.24 40.80L127.14 40.70Q127.26 40.94 127.80 42.92L127.68 42.80L127.80 42.92Q130.68 43.78 132.69 45.23L132.75 45.28L132.85 45.39Q129.99 39.45 129.46 33.13L129.42 33.09L129.46 33.12Q129.12 29.40 127.72 27.84L127.87 28.00L127.77 27.89Q127.82 27.86 127.17 27.41L127.07 27.31L127.17 27.41Q126.89 26.86 126.24 26.10L126.22 26.08L126.37 26.15L126.35 26.13Q125.36 25.14 122.24 24.87L122.28 24.92L122.25 24.89Q121.64 25.00 120.23 25.34L120.25 25.36L120.18 25.29Q120.01 20.47 119.66 17.96L119.64 17.94L119.66 17.96Q118.87 17.81 117.38 17.51L117.26 17.39L117.31 17.44Q117.12 16.67 116.85 15.18L116.82 15.16L116.92 15.26Q113.99 14.30 112.12 12.74L112.08 12.70L111.99 12.61Q114.92 19.73 115.19 27.53L115.33 27.67L115.32 27.67Q115.64 35.48 113.08 42.83L113.08 42.83L112.97 42.71Q114.02 42.24 115.16 41.74L114.99 41.58L114.35 43.94L114.45 44.04Q117.55 42.69 119.53 42.50L119.55 42.52L119.48 42.45Q120.11 37.10 120.30 33.14L120.19 33.03L120.31 33.15Q120.27 31.17 122.21 30.06L122.36 30.21L122.32 30.17Q122.88 29.97 123.41 30.01L123.30 29.89L123.31 29.91Q123.42 29.87 123.77 29.91L123.77 29.91L124.22 30.01L124.33 30.13Q124.20 30.37 124.31 30.83L124.31 30.83L124.37 30.89Q124.47 36.86 124.97 40.28Z"/><path fill="#333" d="M66.39 19.24L66.24 19.09L66.39 19.24Q67.40 23.59 67.55 26.79L67.72 26.96L67.72 26.96Q68.10 26.88 72.48 27.00L72.55 27.08L72.40 26.92Q75.06 27.07 75.45 23.61L75.38 23.54L75.50 23.66Q75.71 21.93 74.79 21.02L74.71 20.94L74.69 20.92Q73.47 20.08 71.49 19.92L71.39 19.82L71.51 19.94Q68.25 19.69 66.39 19.23ZM67.73 28.80L67.79 28.86L67.72 28.79Q67.87 34.77 66.08 40.71L66.11 40.73L66.19 40.81Q64.87 41.06 62.28 42.08L62.34 42.14L62.32 42.12Q65.18 35.66 64.84 28.20L64.74 28.10L64.78 28.13Q64.41 20.72 61.10 14.21L61.18 14.29L61.12 14.23Q66.04 17.10 73.01 17.10L73.00 17.09L73.03 17.12Q78.55 17.01 78.82 20.55L78.95 20.68L78.87 20.60Q78.94 21.20 78.86 21.81L78.95 21.90L78.89 23.06L78.81 22.98Q78.04 26.96 75.91 28.68L75.86 28.63L75.92 28.69Q75.14 29.40 74.12 29.40L74.08 29.36L71.44 29.31L71.33 29.20Q76.99 36.50 81.52 41.07L81.53 41.08L81.56 41.11Q79.29 40.29 76.36 39.94L76.36 39.95L76.35 39.93Q72.69 36.08 67.78 28.85ZM76.20 40.28L76.22 40.30L76.69 40.47L77.96 41.73L77.93 41.71Q78.37 42.11 79.02 42.72L79.01 42.71L79.12 42.81Q82.57 43.33 86.15 45.20L86.16 45.22L86.10 45.15Q79.22 38.47 73.82 31.54L73.92 31.63L75.57 31.54L75.64 31.61Q78.60 31.49 79.94 26.96L80.10 27.12L79.97 26.99Q80.66 24.79 80.66 22.09L80.79 22.22L80.75 22.18Q80.79 19.93 79.08 19.29L79.05 19.26L78.91 19.11Q78.95 18.89 78.38 18.21L78.41 18.23L78.38 18.21Q76.63 16.68 72.97 16.61L72.91 16.54L72.90 16.53Q65.20 16.57 60.52 13.56L60.48 13.51L60.44 13.48Q64.12 20.24 64.46 27.93L64.54 28.01L64.60 28.07Q64.80 35.88 61.68 42.73L61.78 42.84L61.67 42.73Q62.90 42.12 63.70 41.82L63.86 41.98L62.80 44.20L62.85 44.25Q65.44 43.07 68.10 42.57L68.19 42.66L68.11 42.58Q69.52 37.60 69.71 32.38L69.67 32.34L69.69 32.36Q73.23 37.35 76.39 40.47ZM74.98 22.39L75.14 22.54L75.09 22.49Q75.13 22.76 75.13 23.10L75.12 23.10L75.09 23.64L75.08 23.62Q75.04 24.69 74.35 25.64L74.31 25.60L74.33 25.62Q73.79 26.45 72.88 26.64L72.94 26.70L72.91 26.67Q72.63 26.65 71.03 26.69L71.12 26.78L71.09 26.76Q70.56 26.83 69.72 26.72L69.63 26.62L69.64 26.64Q69.58 25.17 69.24 22.13L69.21 22.10L69.16 22.05Q70.63 22.30 71.32 22.30L71.38 22.36L71.33 22.31Q73.11 22.26 75.05 22.45Z"/><path fill="#222" d="M15.14 41.19L15.13 41.18L14.96 41.01Q18.24 36.87 24.94 28.95L24.98 28.99L24.99 29.00Q18.98 29.12 15.21 27.75L15.28 27.82L15.27 27.80Q14.48 26.25 13.72 24.84L13.73 24.85L13.83 24.95Q17.95 26.49 22.41 26.53L22.37 26.49L22.40 26.52Q26.82 26.52 31.00 25.45L30.98 25.44L30.94 25.39Q30.52 26.04 30.26 26.58L30.30 26.61L30.39 26.71Q27.73 28.81 24.92 32.43L25.03 32.54L20.11 38.73L20.07 38.70Q22.37 38.56 24.62 38.64L24.57 38.59L24.62 38.64Q26.76 38.65 29.01 39.03L29.03 39.05L28.98 39.00Q29.20 39.68 29.92 41.69L29.77 41.54L29.81 41.58Q26.19 40.86 22.20 40.97L22.21 40.99L22.20 40.98Q18.23 41.08 14.57 42.26L14.45 42.14L14.55 42.24Q14.60 42.05 15.05 41.10ZM13.86 42.73L14.05 42.92L13.94 42.81Q14.73 42.50 16.33 42.08L16.29 42.03L16.36 42.11Q16.14 42.34 15.72 42.76L15.70 42.73L15.65 42.69Q15.47 43.30 14.86 44.45L14.91 44.50L14.81 44.40Q19.53 43.07 24.52 43.22L24.57 43.27L24.54 43.24Q29.44 43.35 34.01 45.21L34.11 45.31L34.09 45.29Q32.63 43.41 31.71 41.36L31.63 41.27L31.65 41.29Q30.89 40.99 29.82 40.76L29.77 40.71L29.89 40.83Q29.68 40.08 29.30 38.64L29.37 38.70L29.19 38.53Q27.73 38.29 24.15 38.17L24.18 38.20L24.22 38.24Q26.62 34.93 31.65 28.57L31.62 28.55L31.67 28.60Q31.80 27.73 32.48 26.40L32.52 26.44L30.26 27.23L30.18 27.14Q30.26 27.07 30.41 26.96L30.47 27.02L30.59 26.76L30.60 26.77Q31.03 25.67 31.60 24.72L31.77 24.89L31.79 24.91Q27.04 26.17 22.32 26.10L22.39 26.17L22.37 26.15Q17.50 26.00 13.01 24.17L13.04 24.21L13.01 24.17Q14.16 26.01 14.96 28.06L15.03 28.14L15.05 28.15Q15.88 28.45 16.94 28.72L16.84 28.62L16.90 28.68Q17.17 29.43 17.47 30.88L17.51 30.92L17.44 30.85Q18.94 31.02 22.25 31.17L22.25 31.17L22.36 31.28Q19.99 34.62 14.82 41.05L14.75 40.98L14.77 41.01Q14.53 41.60 13.96 42.82Z"/></svg>